<svg version="1.1" id="Layer_1" xmlns="http://www.w3.org/2000/svg" xmlns:xlink="http://www.w3.org/1999/xlink" x="0px" y="0px"
	 width="100%" viewBox="0 0 3000 3000" enable-background="new 0 0 3000 3000" xml:space="preserve">
<path fill="#FFFFFF" opacity="1.000000" stroke="none" 
	d="
M1464.000000,3002.000000 
	C976.000061,3002.000000 489.000183,3002.000000 2.000196,3002.000000 
	C2.000131,2002.000244 2.000131,1002.000549 2.000065,2.000599 
	C1001.999573,2.000399 2001.999146,2.000399 3001.999023,2.000200 
	C3001.999512,1001.999329 3001.999512,2001.998657 3001.999756,3001.999023 
	C2489.666748,3002.000000 1977.333374,3002.000000 1464.000000,3002.000000 
M961.000488,745.239685 
	C924.018494,745.351379 887.036560,745.462219 850.054626,745.590027 
	C849.762939,745.591064 849.426697,745.769897 849.193298,745.964294 
	C848.945984,746.170288 848.796875,746.494202 847.949158,747.696899 
	C847.949158,849.628540 847.949158,952.492615 847.949158,1056.511230 
	C716.231689,1056.511230 585.164124,1056.511230 454.352448,1056.511230 
	C454.352448,1124.152954 454.352448,1190.634399 454.352448,1257.963013 
	C585.844788,1257.963013 716.649597,1257.963013 847.365723,1257.963013 
	C847.365723,1414.565674 847.365723,1570.313721 847.365723,1726.846436 
	C715.796326,1726.846436 584.951660,1726.846436 454.338196,1726.846436 
	C454.338196,1794.121582 454.338196,1860.607422 454.338196,1927.938477 
	C585.817505,1927.938477 716.623596,1927.938477 848.271118,1927.938477 
	C848.271118,2038.934570 848.271118,2149.082764 848.271118,2259.117188 
	C864.154175,2261.157715 1252.371094,2260.453369 1260.104004,2258.235352 
	C1260.104004,2148.344727 1260.104004,2038.205811 1260.104004,1927.925049 
	C1369.564941,1927.925049 1478.166870,1927.925049 1586.964233,1927.925049 
	C1589.123413,1930.958374 1591.272949,1933.890259 1593.332397,1936.884033 
	C1665.444946,2041.714478 1737.593140,2146.520264 1809.540283,2251.464355 
	C1813.651611,2257.461426 1817.601562,2260.327637 1825.453491,2260.302490 
	C1933.108154,2259.957520 2040.764160,2260.069824 2148.419922,2260.069824 
	C2151.674561,2260.069824 2154.929443,2260.069824 2159.008789,2260.069824 
	C2159.008789,2149.038330 2159.008789,2038.865356 2159.008789,1927.781738 
	C2290.313477,1927.781738 2420.791260,1927.781738 2551.109375,1927.781738 
	C2553.119385,1916.006836 2552.724121,1733.945679 2550.587646,1725.870728 
	C2420.365723,1725.870728 2289.898193,1725.870728 2159.701904,1725.870728 
	C2159.701904,1569.436646 2159.701904,1413.923218 2159.701904,1257.493408 
	C2290.691406,1257.493408 2421.167236,1257.493408 2551.791016,1257.493408 
	C2551.791016,1190.087158 2551.791016,1123.600708 2551.791016,1056.202393 
	C2420.770508,1056.202393 2290.292725,1056.202393 2158.834961,1056.202393 
	C2158.834961,952.178467 2158.834961,849.064331 2158.834961,745.747192 
	C2021.370117,745.747192 1884.890503,745.747192 1747.472656,745.747192 
	C1747.472656,849.389893 1747.472656,952.529602 1747.472656,1055.993896 
	C1633.950073,1055.993896 1521.366211,1055.993896 1408.697510,1055.993896 
	C1407.093018,1053.712280 1405.531860,1051.558228 1404.038086,1049.358521 
	C1337.048218,950.716858 1270.013306,852.105713 1203.207520,753.339539 
	C1199.244751,747.481079 1195.198853,745.043213 1187.977051,745.069824 
	C1112.985596,745.345886 1037.992920,745.239746 961.000488,745.239685 
z"/>
<path fill="#010101" opacity="1.000000" stroke="none" 
	d="
M962.000488,745.239685 
	C1037.992920,745.239746 1112.985596,745.345886 1187.977051,745.069824 
	C1195.198853,745.043213 1199.244751,747.481079 1203.207520,753.339539 
	C1270.013306,852.105713 1337.048218,950.716858 1404.038086,1049.358521 
	C1405.531860,1051.558228 1407.093018,1053.712280 1408.697510,1055.993896 
	C1521.366211,1055.993896 1633.950073,1055.993896 1747.472656,1055.993896 
	C1747.472656,952.529602 1747.472656,849.389893 1747.472656,745.747192 
	C1884.890503,745.747192 2021.370117,745.747192 2158.834961,745.747192 
	C2158.834961,849.064331 2158.834961,952.178467 2158.834961,1056.202393 
	C2290.292725,1056.202393 2420.770508,1056.202393 2551.791016,1056.202393 
	C2551.791016,1123.600708 2551.791016,1190.087158 2551.791016,1257.493408 
	C2421.167236,1257.493408 2290.691406,1257.493408 2159.701904,1257.493408 
	C2159.701904,1413.923218 2159.701904,1569.436646 2159.701904,1725.870728 
	C2289.898193,1725.870728 2420.365723,1725.870728 2550.587646,1725.870728 
	C2552.724121,1733.945679 2553.119385,1916.006836 2551.109375,1927.781738 
	C2420.791260,1927.781738 2290.313477,1927.781738 2159.008789,1927.781738 
	C2159.008789,2038.865356 2159.008789,2149.038330 2159.008789,2260.069824 
	C2154.929443,2260.069824 2151.674561,2260.069824 2148.419922,2260.069824 
	C2040.764160,2260.069824 1933.108154,2259.957520 1825.453491,2260.302490 
	C1817.601562,2260.327637 1813.651611,2257.461426 1809.540283,2251.464355 
	C1737.593140,2146.520264 1665.444946,2041.714478 1593.332397,1936.884033 
	C1591.272949,1933.890259 1589.123413,1930.958374 1586.964233,1927.925049 
	C1478.166870,1927.925049 1369.564941,1927.925049 1260.104004,1927.925049 
	C1260.104004,2038.205811 1260.104004,2148.344727 1260.104004,2258.235352 
	C1252.371094,2260.453369 864.154175,2261.157715 848.271118,2259.117188 
	C848.271118,2149.082764 848.271118,2038.934570 848.271118,1927.938477 
	C716.623596,1927.938477 585.817505,1927.938477 454.338196,1927.938477 
	C454.338196,1860.607422 454.338196,1794.121582 454.338196,1726.846436 
	C584.951660,1726.846436 715.796326,1726.846436 847.365723,1726.846436 
	C847.365723,1570.313721 847.365723,1414.565674 847.365723,1257.963013 
	C716.649597,1257.963013 585.844788,1257.963013 454.352448,1257.963013 
	C454.352448,1190.634399 454.352448,1124.152954 454.352448,1056.511230 
	C585.164124,1056.511230 716.231689,1056.511230 847.949158,1056.511230 
	C847.949158,952.492615 847.949158,849.628540 847.949158,747.696899 
	C848.796875,746.494202 848.945984,746.170288 849.193298,745.964294 
	C849.426697,745.769897 849.762939,745.591064 850.054626,745.590027 
	C887.036560,745.462219 924.018494,745.351379 962.000488,745.239685 
M1747.673218,1319.000122 
	C1747.673218,1298.776978 1747.673218,1278.553955 1747.673218,1258.175415 
	C1680.114746,1258.175415 1613.670410,1258.175415 1545.834595,1258.175415 
	C1609.667114,1352.168335 1672.822388,1445.164307 1735.999390,1538.192139 
	C1740.091309,1537.986084 1743.594727,1537.809692 1747.673218,1537.604370 
	C1747.673218,1464.899292 1747.673218,1392.949829 1747.673218,1319.000122 
M1275.060669,1726.329956 
	C1332.030762,1726.238647 1389.000977,1726.147949 1445.971069,1726.034424 
	C1446.207886,1726.033936 1446.507935,1725.750610 1446.664185,1725.521484 
	C1446.845337,1725.255737 1446.900269,1724.903564 1447.079102,1724.390747 
	C1445.305298,1721.754761 1443.484009,1718.996460 1441.611572,1716.273560 
	C1406.515137,1665.240479 1371.412231,1614.211914 1336.312012,1563.181763 
	C1314.986938,1532.178589 1293.605713,1501.213745 1272.405273,1470.125732 
	C1269.331177,1465.617920 1266.332520,1462.305176 1260.390381,1464.845215 
	C1260.390381,1551.947510 1260.390381,1639.019043 1260.390381,1726.329956 
	C1265.102539,1726.329956 1269.087891,1726.329956 1275.060669,1726.329956 
z"/>
<path fill="#FDFDFD" opacity="1.000000" stroke="none" 
	d="
M1747.673218,1320.000244 
	C1747.673218,1392.949829 1747.673218,1464.899292 1747.673218,1537.604370 
	C1743.594727,1537.809692 1740.091309,1537.986084 1735.999390,1538.192139 
	C1672.822388,1445.164307 1609.667114,1352.168335 1545.834595,1258.175415 
	C1613.670410,1258.175415 1680.114746,1258.175415 1747.673218,1258.175415 
	C1747.673218,1278.553955 1747.673218,1298.776978 1747.673218,1320.000244 
z"/>
<path fill="#FEFEFE" opacity="1.000000" stroke="none" 
	d="
M1274.066895,1726.329956 
	C1269.087891,1726.329956 1265.102539,1726.329956 1260.390381,1726.329956 
	C1260.390381,1639.019043 1260.390381,1551.947510 1260.390381,1464.845215 
	C1266.332520,1462.305176 1269.331177,1465.617920 1272.405273,1470.125732 
	C1293.605713,1501.213745 1314.986938,1532.178589 1336.312012,1563.181763 
	C1371.412231,1614.211914 1406.515137,1665.240479 1441.611572,1716.273560 
	C1443.484009,1718.996460 1445.305298,1721.754761 1447.079102,1724.390747 
	C1446.900269,1724.903564 1446.845337,1725.255737 1446.664185,1725.521484 
	C1446.507935,1725.750610 1446.207886,1726.033936 1445.971069,1726.034424 
	C1389.000977,1726.147949 1332.030762,1726.238647 1274.066895,1726.329956 
z"/>
</svg>